<?xml version="1.0" standalone="no"?>
<!DOCTYPE svg PUBLIC "-//W3C//DTD SVG 20010904//EN"
 "http://www.w3.org/TR/2001/REC-SVG-20010904/DTD/svg10.dtd">
<svg version="1.0" xmlns="http://www.w3.org/2000/svg"
 width="71.000000pt" height="71.000000pt" viewBox="0 0 71.000000 71.000000"
 preserveAspectRatio="xMidYMid meet">
<metadata>
Created by potrace 1.14, written by Peter Selinger 2001-2017
</metadata>
<g transform="translate(0.000000,71.000000) scale(0.100000,-0.100000)"
fill="#000000" stroke="none">
<path d="M0 355 l0 -355 355 0 355 0 0 355 0 355 -355 0 -355 0 0 -355z m489
286 c102 -53 161 -157 161 -285 0 -74 0 -74 -31 -85 -52 -18 -92 -13 -157 20
-146 73 -248 258 -192 348 l21 33 77 -4 c53 -3 91 -12 121 -27z m-397 -406
c36 -70 99 -138 147 -160 23 -10 39 -20 37 -23 -11 -10 -133 70 -163 107 -42
51 -73 131 -72 184 l1 42 12 -50 c7 -27 24 -72 38 -100z"/>
</g>
</svg>
